<svg
  xmlns="http://www.w3.org/2000/svg"
  viewBox="0 0 512 512"
  fill="none"
>
  <path
    d="M256 314.88C279.062 293.547 297 276.48 309.813 263.68C322.625 250.88 332.661 240.213 339.922 231.68C346.755 223.147 351.564 215.253 354.349 208C357.133 200.747 358.517 192.853 358.5 184.32C358.5 168.96 352.948 155.733 341.844 144.64C330.74 133.547 317.5 128 302.125 128C293.156 128 284.504 129.809 276.167 133.427C267.83 137.045 261.108 142.063 256 148.48C250.875 142.08 244.255 137.071 236.141 133.453C228.026 129.835 219.271 128.017 209.875 128C194.5 128 181.26 133.547 170.156 144.64C159.052 155.733 153.5 168.96 153.5 184.32C153.5 193.28 154.781 201.173 157.344 208C159.906 214.827 164.604 222.507 171.437 231.04C178.698 239.573 188.521 250.24 200.906 263.04C213.292 275.84 231.656 293.12 256 314.88ZM256 512C187.24 453.547 135.887 399.258 101.942 349.133C67.9979 299.008 51.0171 252.604 51 209.92C51 145.92 71.611 94.9333 112.833 56.96C154.055 18.9867 201.777 0 256 0C310.222 0 357.953 18.9867 399.192 56.96C440.432 94.9333 461.034 145.92 461 209.92C461 252.587 444.028 298.991 410.083 349.133C376.139 399.275 324.777 453.564 256 512Z"
    fill="#C83636"
  />
  <path
    d="M256 314.88C279.062 293.547 297 276.48 309.813 263.68C322.625 250.88 332.661 240.213 339.922 231.68C346.755 223.147 351.564 215.253 354.349 208C357.133 200.747 358.517 192.853 358.5 184.32C358.5 168.96 352.948 155.733 341.844 144.64C330.74 133.547 317.5 128 302.125 128C293.156 128 284.504 129.809 276.167 133.427C267.83 137.045 261.108 142.063 256 148.48C250.875 142.08 244.255 137.071 236.141 133.453C228.026 129.835 219.271 128.017 209.875 128C194.5 128 181.26 133.547 170.156 144.64C159.052 155.733 153.5 168.96 153.5 184.32C153.5 193.28 154.781 201.173 157.344 208C159.906 214.827 164.604 222.507 171.437 231.04C178.698 239.573 188.521 250.24 200.906 263.04C213.292 275.84 231.656 293.12 256 314.88Z"
    fill="white"
  />
</svg>
